# xmcd
#
# Track frame offsets:
#   150
#   18077
#   44844
#   54495
#   77006
#   92913
#   117458
#   129233
#   148825
#   162309
#
# Disc length: 2411 seconds
#
# Revision: 0
# Processed by: cddbd v1.5PL3 Copyright (c) Steve Scherf et al.
# Submitted via: uFREEDB 1.6.0
#
DISCID=8609690a
DTITLE=Leonard Cohen - Songs Of Leonard Cohen
DYEAR=1968
DGENRE=Blues
TTITLE0=Suzanne
TTITLE1=Master Song
TTITLE2=Winter Lady
TTITLE3=The Stranger Song
TTITLE4=Sisters Of Mercy
TTITLE5=So Long Marianne
TTITLE6=Hey That's No Way To Say Goodbye
TTITLE7=Stories Of The Street
TTITLE8=Teachers
TTITLE9=One Of Us Cannot Be Wrong
EXTD=
EXTT0=
EXTT1=
EXTT2=
EXTT3=
EXTT4=
EXTT5=
EXTT6=
EXTT7=
EXTT8=
EXTT9=
PLAYORDER=
